<mxfile host="65bd71144e">
    <diagram id="2dtWLAMzyVfP5LlpqYg7" name="CAPI">
        <mxGraphModel dx="376" dy="511" grid="1" gridSize="10" guides="1" tooltips="1" connect="1" arrows="1" fold="1" page="1" pageScale="1" pageWidth="1654" pageHeight="1169" background="#FFFFFF" math="0" shadow="0">
            <root>
                <mxCell id="0"/>
                <mxCell id="1" parent="0"/>
                <mxCell id="3" value="Infrastructure Provider" style="rounded=1;whiteSpace=wrap;html=1;fontSize=30;fontStyle=1;fillColor=#ffe6cc;strokeColor=#d79b00;" parent="1" vertex="1">
                    <mxGeometry x="80" y="800" width="660" height="150" as="geometry"/>
                </mxCell>
                <mxCell id="4" value="Kubernetes" style="rounded=1;whiteSpace=wrap;html=1;fontSize=30;fillColor=#dae8fc;strokeColor=#6c8ebf;fontStyle=1" parent="1" vertex="1">
                    <mxGeometry x="160" y="610" width="1320" height="140" as="geometry"/>
                </mxCell>
                <mxCell id="5" value="&lt;br&gt;Management Cluster" style="whiteSpace=wrap;html=1;aspect=fixed;fontSize=30;fontStyle=1;fillColor=#e1d5e7;strokeColor=#9673a6;" parent="1" vertex="1">
                    <mxGeometry x="230" y="10" width="583" height="583" as="geometry"/>
                </mxCell>
                <mxCell id="6" value="Workload&lt;br&gt;Cluster B" style="whiteSpace=wrap;html=1;aspect=fixed;fontSize=30;fontStyle=1;fillColor=#d5e8d4;strokeColor=#82b366;" parent="1" vertex="1">
                    <mxGeometry x="890" y="315" width="270" height="270" as="geometry"/>
                </mxCell>
                <mxCell id="7" value="" style="rounded=0;whiteSpace=wrap;html=1;fontSize=30;fillColor=#f8cecc;strokeColor=#b85450;" parent="1" vertex="1">
                    <mxGeometry x="580" y="390" width="100" height="90" as="geometry"/>
                </mxCell>
                <mxCell id="8" value="" style="rounded=0;whiteSpace=wrap;html=1;fontSize=30;fillColor=#f8cecc;strokeColor=#b85450;" parent="1" vertex="1">
                    <mxGeometry x="610" y="430" width="100" height="90" as="geometry"/>
                </mxCell>
                <mxCell id="9" value="" style="rounded=0;whiteSpace=wrap;html=1;fontSize=30;fillColor=#f8cecc;strokeColor=#b85450;" parent="1" vertex="1">
                    <mxGeometry x="640" y="470" width="100" height="90" as="geometry"/>
                </mxCell>
                <mxCell id="10" value="" style="rounded=0;whiteSpace=wrap;html=1;fontSize=30;fillColor=#f8cecc;strokeColor=#b85450;" parent="1" vertex="1">
                    <mxGeometry x="340" y="390" width="100" height="90" as="geometry"/>
                </mxCell>
                <mxCell id="11" value="" style="rounded=0;whiteSpace=wrap;html=1;fontSize=30;fillColor=#f8cecc;strokeColor=#b85450;" parent="1" vertex="1">
                    <mxGeometry x="370" y="430" width="100" height="90" as="geometry"/>
                </mxCell>
                <mxCell id="12" value="" style="rounded=0;whiteSpace=wrap;html=1;fontSize=30;fillColor=#f8cecc;strokeColor=#b85450;" parent="1" vertex="1">
                    <mxGeometry x="400" y="470" width="100" height="90" as="geometry"/>
                </mxCell>
                <mxCell id="20" value="" style="endArrow=classic;html=1;fontSize=30;exitX=1;exitY=0.5;exitDx=0;exitDy=0;entryX=0;entryY=0.5;entryDx=0;entryDy=0;rounded=0;" parent="1" source="37" target="72" edge="1">
                    <mxGeometry width="50" height="50" relative="1" as="geometry">
                        <mxPoint x="750" y="90" as="sourcePoint"/>
                        <mxPoint x="1016" y="125" as="targetPoint"/>
                        <Array as="points">
                            <mxPoint x="1040" y="80"/>
                            <mxPoint x="1040" y="167"/>
                        </Array>
                    </mxGeometry>
                </mxCell>
                <mxCell id="33" value="" style="shape=singleArrow;direction=south;whiteSpace=wrap;html=1;fillColor=#f8cecc;strokeColor=#b85450;" parent="1" vertex="1">
                    <mxGeometry x="510" y="540" width="60" height="100" as="geometry"/>
                </mxCell>
                <mxCell id="37" value="A" style="ellipse;whiteSpace=wrap;html=1;aspect=fixed;fontSize=30;fillColor=#d5e8d4;strokeColor=#82b366;fontStyle=0" parent="1" vertex="1">
                    <mxGeometry x="601.5" y="30" width="100" height="100" as="geometry"/>
                </mxCell>
                <mxCell id="38" value="Bootstrap" style="rounded=0;whiteSpace=wrap;html=1;fontSize=30;fillColor=#fff2cc;strokeColor=#d6b656;fontStyle=0" parent="1" vertex="1">
                    <mxGeometry x="341.5" y="40" width="150" height="80" as="geometry"/>
                </mxCell>
                <mxCell id="39" style="edgeStyle=none;html=1;entryX=0;entryY=0.5;entryDx=0;entryDy=0;exitX=1;exitY=0.5;exitDx=0;exitDy=0;rounded=0;" parent="1" source="38" target="37" edge="1">
                    <mxGeometry relative="1" as="geometry"/>
                </mxCell>
                <mxCell id="70" value="B" style="ellipse;whiteSpace=wrap;html=1;aspect=fixed;fontSize=30;fillColor=#d5e8d4;strokeColor=#82b366;fontStyle=0" parent="1" vertex="1">
                    <mxGeometry x="601.5" y="160" width="100" height="100" as="geometry"/>
                </mxCell>
                <mxCell id="71" value="Bootstrap" style="rounded=0;whiteSpace=wrap;html=1;fontSize=30;fillColor=#fff2cc;strokeColor=#d6b656;fontStyle=0" parent="1" vertex="1">
                    <mxGeometry x="341.5" y="170" width="150" height="80" as="geometry"/>
                </mxCell>
                <mxCell id="72" value="Workload&lt;br&gt;Cluster A" style="whiteSpace=wrap;html=1;aspect=fixed;fontSize=30;fontStyle=1;fillColor=#d5e8d4;strokeColor=#82b366;" parent="1" vertex="1">
                    <mxGeometry x="1207" y="30" width="273" height="273" as="geometry"/>
                </mxCell>
                <mxCell id="73" value="" style="endArrow=classic;html=1;fontSize=30;exitX=1;exitY=0.5;exitDx=0;exitDy=0;entryX=0.5;entryY=0;entryDx=0;entryDy=0;rounded=0;" parent="1" source="70" target="6" edge="1">
                    <mxGeometry width="50" height="50" relative="1" as="geometry">
                        <mxPoint x="711.5" y="80" as="sourcePoint"/>
                        <mxPoint x="1170" y="92.5" as="targetPoint"/>
                        <Array as="points">
                            <mxPoint x="1025" y="210"/>
                        </Array>
                    </mxGeometry>
                </mxCell>
                <mxCell id="75" style="edgeStyle=none;html=1;entryX=0;entryY=0.5;entryDx=0;entryDy=0;exitX=1;exitY=0.5;exitDx=0;exitDy=0;rounded=0;" parent="1" source="71" target="70" edge="1">
                    <mxGeometry relative="1" as="geometry">
                        <mxPoint x="501.5" y="100" as="sourcePoint"/>
                        <mxPoint x="611.5" y="100" as="targetPoint"/>
                    </mxGeometry>
                </mxCell>
                <mxCell id="79" value="Infrastructure Provider" style="rounded=1;whiteSpace=wrap;html=1;fontSize=30;fontStyle=1;fillColor=#ffe6cc;strokeColor=#d79b00;" parent="1" vertex="1">
                    <mxGeometry x="900" y="800" width="660" height="150" as="geometry"/>
                </mxCell>
                <mxCell id="80" value="Cloud Provider" style="rounded=1;whiteSpace=wrap;html=1;fontSize=30;fontStyle=1;fillColor=#ffe6cc;strokeColor=#d79b00;" parent="1" vertex="1">
                    <mxGeometry x="80" y="1000" width="660" height="150" as="geometry"/>
                </mxCell>
                <mxCell id="81" value="Cloud Provider" style="rounded=1;whiteSpace=wrap;html=1;fontSize=30;fontStyle=1;fillColor=#ffe6cc;strokeColor=#d79b00;" parent="1" vertex="1">
                    <mxGeometry x="900" y="1000" width="660" height="150" as="geometry"/>
                </mxCell>
                <mxCell id="82" value="" style="shape=singleArrow;direction=south;whiteSpace=wrap;html=1;fillColor=#f8cecc;strokeColor=#b85450;" parent="1" vertex="1">
                    <mxGeometry x="380" y="730" width="60" height="100" as="geometry"/>
                </mxCell>
                <mxCell id="32" value="" style="shape=singleArrow;direction=south;whiteSpace=wrap;html=1;fillColor=#f8cecc;strokeColor=#b85450;" parent="1" vertex="1">
                    <mxGeometry x="1200" y="730" width="60" height="100" as="geometry"/>
                </mxCell>
                <mxCell id="85" value="" style="shape=singleArrow;direction=south;whiteSpace=wrap;html=1;fillColor=#f8cecc;strokeColor=#b85450;" parent="1" vertex="1">
                    <mxGeometry x="380" y="920" width="60" height="100" as="geometry"/>
                </mxCell>
                <mxCell id="35" value="" style="shape=singleArrow;direction=south;whiteSpace=wrap;html=1;fillColor=#f8cecc;strokeColor=#b85450;" parent="1" vertex="1">
                    <mxGeometry x="1200" y="920" width="60" height="100" as="geometry"/>
                </mxCell>
            </root>
        </mxGraphModel>
    </diagram>
</mxfile>